<?xml version="1.0" standalone="no"?>
<!DOCTYPE svg PUBLIC "-//W3C//DTD SVG 20010904//EN"
 "http://www.w3.org/TR/2001/REC-SVG-20010904/DTD/svg10.dtd">
<svg version="1.0" xmlns="http://www.w3.org/2000/svg"
 width="1153.000000pt" height="1153.000000pt" viewBox="0 0 1153.000000 1153.000000"
 preserveAspectRatio="xMidYMid meet">
<metadata>
Created by potrace 1.11, written by Peter Selinger 2001-2013
</metadata>
<g transform="translate(0.000000,1153.000000) scale(0.100000,-0.100000)"
fill="#000000" stroke="none">
<path d="M5571 11520 c-40 -9 -81 -48 -84 -78 -1 -12 -4 -22 -7 -22 -3 0 -5
-13 -4 -30 1 -16 -1 -30 -4 -30 -4 0 -8 -15 -9 -32 -2 -18 -12 -45 -23 -60
-31 -41 -8 -49 155 -49 133 0 236 8 269 21 32 12 50 40 82 131 27 73 50 118
68 130 5 4 0 12 -11 17 -23 13 -380 14 -432 2z"/>
<path d="M5306 11513 c-1 -1 -27 -5 -57 -8 -30 -2 -70 -7 -89 -10 -19 -3 -53
-7 -75 -10 -117 -16 -166 -30 -199 -56 -37 -29 -45 -55 -51 -155 -3 -48 -11
-97 -21 -115 l-15 -31 43 6 c24 3 54 8 68 10 281 49 315 59 362 103 25 24 32
45 43 135 2 20 10 50 18 65 8 15 18 38 21 50 6 20 4 23 -19 21 -14 -1 -27 -4
-29 -5z"/>
<path d="M6168 11481 c-15 -12 -39 -53 -58 -98 -18 -43 -42 -97 -55 -120 -21
-38 -22 -43 -7 -44 9 0 26 -3 37 -5 11 -3 43 -7 70 -9 28 -2 66 -7 85 -10 19
-3 64 -8 100 -11 36 -3 71 -7 78 -9 27 -10 76 10 108 43 19 19 34 40 34 46 0
18 56 123 79 147 24 26 27 45 9 46 -7 0 -26 3 -43 6 -129 23 -135 24 -295 33
-107 6 -117 4 -142 -15z"/>
<path d="M4602 11398 c-29 -9 -65 -19 -80 -22 -15 -2 -52 -12 -82 -21 -30 -10
-62 -19 -70 -20 -8 -2 -15 -4 -15 -5 0 -1 -7 -3 -15 -5 -54 -10 -87 -34 -95
-66 -13 -60 -27 -275 -19 -290 2 -4 99 25 214 63 143 48 214 76 220 88 5 10
12 49 16 87 9 110 12 132 19 143 4 6 9 24 11 39 4 25 2 28 -23 27 -15 -1 -52
-9 -81 -18z"/>
<path d="M6820 11393 c-22 -9 -57 -49 -65 -73 -3 -11 -11 -20 -16 -20 -6 0 -8
-4 -5 -8 8 -14 -54 -114 -75 -119 -10 -3 -19 -9 -19 -13 0 -7 149 -55 200 -65
14 -3 50 -11 80 -18 31 -7 82 -14 115 -16 81 -3 121 20 156 88 31 60 76 114
102 124 22 8 13 27 -13 27 -10 0 -22 5 -25 10 -4 6 -10 8 -15 5 -5 -3 -11 -1
-15 5 -4 6 -11 8 -16 5 -5 -4 -15 -3 -21 2 -7 4 -17 8 -23 9 -5 1 -39 10 -75
19 -36 9 -72 19 -80 20 -8 2 -15 4 -15 5 0 10 -155 22 -175 13z"/>
<path d="M4040 11233 c-8 -2 -22 -7 -30 -10 -8 -4 -17 -7 -20 -8 -3 -1 -21 -8
-40 -15 -46 -17 -225 -110 -272 -141 -21 -13 -41 -33 -45 -44 -8 -25 -5 -91 7
-130 5 -16 11 -55 13 -85 2 -42 6 -54 17 -52 8 2 23 4 32 5 10 1 18 5 18 9 0
4 7 8 15 8 19 0 278 121 287 135 4 5 8 6 8 2 0 -5 7 -1 16 7 20 20 31 91 29
191 -3 145 -1 140 -35 128z"/>
<path d="M7454 11212 c-30 -4 -84 -56 -140 -132 -26 -36 -51 -70 -56 -77 -10
-13 23 -30 179 -92 56 -23 115 -46 130 -53 89 -36 94 -34 226 85 38 34 81 69
97 78 28 15 28 17 12 31 -30 25 -310 142 -371 154 -14 3 -28 7 -33 10 -4 3 -8
-1 -8 -8 0 -8 -3 -9 -8 -3 -4 6 -17 9 -28 7z"/>
<path d="M3443 10976 c-13 -6 -23 -14 -23 -18 0 -5 -7 -8 -15 -8 -8 0 -15 -4
-15 -10 0 -5 -7 -10 -15 -10 -8 0 -15 -4 -15 -8 0 -5 -6 -9 -12 -9 -13 0 -117
-63 -198 -119 -93 -65 -100 -88 -63 -209 13 -44 25 -99 26 -122 1 -48 10 -52
47 -23 14 11 30 20 36 20 6 0 19 9 29 20 10 11 22 17 26 14 5 -3 9 -2 9 3 0 4
21 19 48 33 26 14 52 28 57 33 35 27 82 58 96 63 44 16 50 86 24 264 -3 19 -7
47 -8 62 -3 34 -7 36 -34 24z"/>
<path d="M8038 10962 c-2 -4 -16 -18 -33 -30 -47 -36 -185 -174 -180 -181 2
-4 25 -17 52 -30 26 -13 60 -33 76 -43 15 -11 27 -16 27 -12 0 4 8 1 18 -7 19
-17 104 -58 179 -88 l50 -19 44 26 c24 14 57 39 73 55 16 16 48 41 70 55 23
15 44 31 48 36 7 11 -70 76 -89 76 -7 0 -13 5 -13 10 0 6 -4 10 -10 10 -5 0
-33 14 -62 31 -78 46 -204 109 -227 114 -11 2 -21 0 -23 -3z"/>
<path d="M2850 10605 c-25 -19 -49 -38 -55 -43 -5 -4 -43 -32 -82 -62 -40 -29
-73 -57 -73 -62 0 -4 -5 -8 -11 -8 -14 0 -69 -60 -80 -88 -13 -33 -3 -74 36
-153 18 -38 37 -89 40 -114 7 -41 19 -58 27 -36 3 8 62 60 203 175 69 57 126
117 119 127 -3 5 -1 9 4 9 17 0 4 76 -31 181 -19 57 -39 105 -43 106 -5 2 -29
-13 -54 -32z"/>
<path d="M8580 10614 c-19 -8 -37 -18 -40 -23 -3 -4 -20 -16 -37 -26 -18 -11
-33 -23 -33 -27 0 -4 -7 -8 -15 -8 -7 0 -18 -6 -22 -12 -11 -17 -49 -38 -68
-38 -27 0 0 -35 73 -93 142 -115 264 -187 302 -181 26 5 121 55 207 110 l55
35 -43 39 c-24 22 -49 40 -56 40 -6 0 -13 3 -15 8 -8 18 -251 193 -267 192 -3
-1 -22 -8 -41 -16z"/>
<path d="M5676 10355 c-43 -41 -83 -75 -87 -75 -5 0 -9 -7 -9 -15 0 -8 -4 -15
-9 -15 -8 0 -75 -56 -123 -102 -10 -10 -22 -18 -27 -18 -5 0 -12 -7 -15 -16
-4 -9 -9 -15 -12 -12 -3 3 -20 -9 -38 -26 -18 -17 -50 -44 -71 -61 -74 -57
-160 -129 -163 -137 -2 -4 -8 -8 -12 -8 -5 0 -22 -12 -38 -27 -16 -16 -50 -46
-76 -68 -78 -66 -244 -235 -230 -235 3 0 -5 -10 -16 -22 -12 -13 -29 -35 -38
-50 -9 -16 -20 -28 -24 -28 -4 0 -8 -7 -8 -15 0 -8 -4 -15 -10 -15 -5 0 -10
-4 -10 -10 0 -5 -15 -33 -34 -62 -64 -101 -176 -352 -191 -428 -2 -8 -8 -33
-13 -55 -15 -55 -23 -95 -27 -130 -2 -16 -4 -30 -5 -30 -5 0 -12 -114 -13
-210 -1 -104 8 -229 20 -278 2 -12 9 -42 13 -67 14 -71 35 -152 60 -230 6 -19
13 -42 15 -50 2 -8 13 -40 25 -70 12 -30 23 -59 24 -65 1 -5 10 -27 19 -49 9
-21 17 -44 17 -52 0 -7 4 -16 10 -19 6 -3 10 -13 10 -21 0 -8 9 -33 20 -57 57
-125 127 -297 122 -301 -3 -3 -1 -6 4 -6 6 0 16 -17 23 -37 8 -21 23 -58 34
-83 11 -25 21 -47 22 -50 1 -3 7 -17 13 -32 6 -15 27 -67 47 -115 20 -48 40
-97 45 -108 5 -11 23 -58 40 -105 17 -47 35 -94 40 -105 4 -11 13 -33 18 -50
6 -16 14 -39 18 -50 4 -11 8 -23 9 -27 2 -5 4 -10 5 -13 1 -3 3 -8 4 -12 1 -5
14 -48 29 -98 15 -49 32 -107 37 -127 6 -21 15 -55 20 -75 6 -21 12 -50 15
-65 3 -16 7 -40 10 -55 13 -72 18 -100 20 -118 7 -48 32 -100 46 -96 7 2 101
5 208 7 107 2 196 6 198 8 2 2 6 138 8 302 5 343 13 774 21 1214 3 168 6 369
7 447 1 79 4 143 7 143 3 0 5 44 6 98 1 93 11 365 19 502 6 104 15 278 20 375
3 50 7 119 11 155 3 36 8 88 10 115 2 28 6 59 8 70 3 11 5 29 6 40 0 18 2 18
10 3 6 -9 10 -27 9 -40 0 -12 2 -45 5 -73 9 -78 21 -284 31 -545 7 -168 15
-329 21 -420 2 -41 7 -122 9 -180 8 -200 27 -1424 29 -1888 1 -307 1 -313 22
-318 11 -3 112 -6 224 -7 174 -2 203 0 205 13 11 69 15 89 19 101 3 8 8 32 10
54 5 38 29 156 60 290 7 27 30 103 40 130 6 17 11 32 12 35 3 19 18 67 23 75
3 6 6 15 7 20 7 31 126 331 172 435 12 24 18 48 16 52 -3 4 -1 8 5 8 9 0 32
55 30 74 0 5 3 12 8 15 5 3 19 31 32 61 13 30 35 80 49 110 15 30 28 64 29 75
2 10 7 22 12 25 4 3 13 19 19 35 5 17 34 86 62 155 69 167 155 428 176 533 2
10 5 26 8 35 3 9 7 33 10 52 3 19 8 46 11 60 17 83 23 308 11 390 -4 25 -9 61
-11 80 -5 36 -6 42 -24 123 -15 65 -61 197 -101 287 -38 87 -119 233 -131 238
-5 2 -9 9 -9 16 0 25 -145 194 -274 319 -140 136 -143 139 -226 207 -72 59
-76 62 -97 80 -9 8 -38 31 -63 50 -26 19 -71 56 -101 82 -30 25 -75 64 -100
85 -64 55 -69 59 -161 145 -46 43 -85 77 -88 77 -3 0 -40 -33 -84 -74z"/>
<path d="M2260 10113 c-123 -124 -175 -189 -181 -229 -4 -20 29 -115 42 -124
15 -11 78 -123 73 -131 -3 -5 1 -9 8 -9 21 0 216 196 282 283 34 44 32 63 -18
176 -19 42 -37 94 -40 116 -3 22 -5 41 -6 43 0 1 -7 2 -16 2 -9 0 -74 -57
-144 -127z"/>
<path d="M9030 10188 c-30 -17 -57 -34 -60 -38 -3 -4 -20 -13 -37 -21 -18 -8
-33 -18 -33 -22 0 -5 -4 -6 -9 -2 -5 3 -17 -2 -26 -12 -16 -16 -16 -18 9 -40
15 -13 25 -23 21 -23 -6 0 58 -64 140 -138 116 -106 187 -118 310 -54 17 9 32
17 35 17 3 1 25 11 49 24 l44 23 -74 76 c-41 42 -79 80 -85 84 -6 4 -28 24
-50 45 -73 71 -131 113 -155 113 -13 0 -49 -14 -79 -32z"/>
<path d="M1920 9752 c0 -5 -8 -17 -18 -28 -10 -10 -28 -35 -42 -54 -13 -19
-27 -37 -30 -40 -3 -3 -23 -30 -45 -60 -22 -30 -42 -57 -45 -60 -3 -3 -20 -25
-38 -49 -35 -49 -41 -93 -17 -127 8 -12 12 -23 10 -26 -3 -2 20 -31 50 -64 30
-32 55 -65 55 -71 0 -7 5 -13 11 -13 6 0 9 -6 6 -12 -2 -7 -1 -21 2 -32 6 -16
10 -13 31 18 14 20 28 36 33 36 4 0 7 7 7 15 0 9 7 18 15 21 8 4 15 11 15 16
0 6 11 24 25 42 14 17 29 36 33 41 4 6 11 17 15 25 4 8 21 35 37 60 37 57 59
105 56 122 -3 16 -56 121 -65 128 -7 6 -28 39 -38 60 -17 37 -63 75 -63 52z"/>
<path d="M9495 9740 c-11 -4 -29 -10 -40 -14 -12 -4 -56 -24 -99 -44 l-78 -37
57 -70 c94 -115 147 -177 194 -226 l44 -46 55 9 c31 5 59 12 62 16 3 4 16 8
30 10 14 1 56 12 93 23 l68 20 -27 37 c-16 20 -32 39 -36 40 -4 2 -8 8 -8 14
0 6 -11 24 -25 42 -14 17 -29 36 -33 41 -59 82 -152 183 -170 186 -32 5 -70 5
-87 -1z"/>
<path d="M1538 9225 c-10 -13 -18 -27 -18 -30 0 -4 -13 -26 -30 -50 -16 -24
-30 -46 -30 -50 0 -3 -15 -30 -34 -60 -19 -29 -32 -56 -29 -59 4 -3 1 -6 -6
-6 -7 0 -10 -4 -6 -9 3 -5 0 -13 -5 -16 -6 -4 -22 -32 -36 -62 -32 -70 -37
-61 129 -236 66 -69 55 -73 113 35 17 31 35 63 40 70 15 19 84 172 89 197 3
11 7 29 9 39 6 28 -22 79 -71 128 -24 24 -43 46 -43 49 0 3 -47 76 -53 81 -1
1 -10 -8 -19 -21z"/>
<path d="M9909 9230 c-8 -5 -28 -11 -45 -14 -16 -2 -29 -5 -29 -6 0 -2 -27 -9
-65 -16 -14 -3 -43 -7 -65 -9 -22 -2 -43 -4 -47 -4 -15 -2 -8 -30 10 -40 9 -6
13 -11 7 -11 -7 0 -7 -3 0 -8 11 -8 19 -20 71 -110 20 -34 43 -70 53 -79 9 -9
15 -18 13 -20 -6 -8 29 -61 61 -92 31 -29 42 -33 84 -32 26 0 59 3 73 6 14 3
56 7 94 10 38 2 72 7 77 12 8 8 -75 182 -112 235 -11 14 -19 31 -19 37 0 6 -4
11 -10 11 -5 0 -10 7 -10 15 0 8 -4 15 -10 15 -5 0 -10 6 -10 13 -1 19 -53 75
-81 85 -14 6 -32 6 -40 2z"/>
<path d="M1207 8618 c-14 -29 -39 -89 -57 -133 -18 -44 -38 -93 -45 -110 -8
-16 -23 -54 -35 -84 l-21 -54 93 -91 c89 -87 137 -126 156 -126 5 0 24 39 42
88 19 48 41 103 49 122 8 19 14 38 13 42 -1 4 5 22 13 41 24 57 30 96 21 132
-2 11 -5 24 -5 28 -1 7 -191 197 -197 197 -1 0 -14 -24 -27 -52z"/>
<path d="M10166 8663 c-5 -5 -114 -18 -179 -22 -14 -1 -17 -6 -12 -23 9 -28
66 -159 126 -285 50 -107 35 -99 239 -118 36 -3 82 -8 103 -10 36 -5 38 -3 32
18 -3 12 -10 31 -15 42 -4 11 -20 52 -35 90 -15 39 -34 86 -42 105 -8 19 -19
44 -23 55 -34 86 -75 144 -104 146 -37 3 -87 4 -90 2z"/>
<path d="M3077 8074 c-2 -2 -21 -6 -43 -9 -21 -4 -64 -13 -94 -21 -30 -8 -62
-17 -70 -19 -8 -2 -16 -4 -17 -5 -2 -2 -7 -4 -13 -5 -5 -1 -12 -4 -15 -5 -3
-1 -8 -3 -12 -5 -49 -13 -160 -70 -243 -124 -75 -49 -246 -206 -305 -281 -45
-58 -134 -210 -163 -280 -26 -65 -63 -189 -76 -257 -42 -218 -17 -511 60 -699
30 -75 89 -189 117 -229 15 -22 35 -51 44 -65 41 -61 184 -203 253 -249 113
-76 231 -131 310 -145 19 -3 46 -9 60 -12 43 -9 260 -15 261 -7 1 4 3 49 4 98
3 117 14 230 25 260 5 12 6 26 3 29 -3 3 -1 11 5 18 6 7 11 16 11 20 12 78 95
203 179 271 38 30 114 75 142 82 3 1 12 4 20 7 82 32 223 42 298 22 82 -21
188 -68 212 -94 3 -3 21 -17 41 -32 142 -106 273 -308 364 -563 10 -27 21 -54
25 -58 9 -10 35 -11 84 -2 21 3 48 8 60 9 11 2 37 6 56 9 75 14 152 22 293 31
26 2 51 6 54 10 10 10 11 113 1 171 -5 27 -15 84 -23 125 -8 41 -17 89 -20
105 -3 17 -14 64 -25 105 -12 41 -23 86 -26 100 -9 42 -94 291 -116 339 -11
25 -21 50 -22 56 -2 5 -18 42 -36 80 -19 39 -34 72 -35 75 0 3 -7 16 -15 30
-54 95 -92 168 -97 183 -3 9 -9 17 -14 17 -5 0 -9 5 -9 10 0 17 -112 180 -198
286 -160 200 -320 340 -520 456 -46 26 -85 48 -87 48 -1 0 -20 8 -41 17 -22 9
-42 18 -46 19 -5 1 -10 3 -13 4 -3 1 -9 4 -15 5 -5 1 -12 4 -15 5 -3 1 -8 3
-12 4 -5 2 -28 8 -53 15 -25 7 -54 15 -65 17 -11 3 -42 10 -70 15 -44 10 -350
20 -358 13z m-224 -768 c50 -48 73 -63 85 -58 9 4 60 29 113 54 53 26 108 50
123 54 l27 6 -26 -68 c-14 -38 -30 -70 -35 -72 -6 -2 -10 -9 -10 -15 0 -7 -11
-34 -25 -62 l-26 -50 76 -73 c85 -83 130 -138 118 -145 -13 -7 -102 -2 -195
13 -78 12 -88 11 -103 -4 -9 -9 -13 -16 -10 -16 4 0 -10 -30 -31 -67 -21 -38
-46 -83 -56 -102 -11 -18 -26 -40 -34 -48 -12 -13 -15 -11 -23 9 -12 31 -28
143 -32 221 -1 20 -7 41 -13 46 -6 4 -56 15 -111 24 -55 9 -117 22 -139 28
-38 10 -38 11 -20 29 11 10 57 39 104 66 124 70 123 69 115 134 -14 115 -21
160 -29 168 -3 2 -1 13 5 23 6 13 6 19 -1 19 -5 0 -10 9 -10 21 0 18 7 14 48
-24 26 -25 78 -75 115 -111z"/>
<path d="M8158 8075 c-2 -2 -28 -6 -58 -10 -30 -4 -62 -11 -71 -16 -9 -4 -19
-6 -21 -4 -3 3 -21 -2 -41 -10 -21 -8 -37 -13 -37 -10 0 3 -13 -1 -30 -10 -16
-8 -33 -16 -37 -16 -23 -3 -124 -50 -188 -87 -45 -25 -139 -85 -145 -92 -3 -3
-25 -21 -50 -40 -139 -107 -335 -317 -431 -461 -13 -20 -41 -62 -61 -93 -21
-31 -38 -59 -38 -63 0 -3 -6 -14 -14 -22 -20 -23 -167 -314 -161 -319 3 -3 1
-10 -4 -16 -11 -13 -84 -196 -82 -204 1 -1 -6 -19 -15 -40 -13 -31 -56 -162
-69 -212 -2 -8 -11 -40 -19 -70 -15 -52 -51 -223 -61 -285 -3 -17 -9 -48 -13
-70 -10 -51 -6 -113 8 -130 7 -8 26 -18 43 -24 30 -10 57 -13 207 -27 36 -3
75 -7 88 -9 13 -2 53 -7 90 -11 37 -3 70 -8 75 -11 25 -15 48 14 84 105 21 53
38 99 38 102 0 9 87 164 109 195 58 83 195 235 211 235 5 0 34 23 59 45 9 9
70 38 86 41 3 0 18 6 34 13 39 16 88 22 171 20 64 0 130 -5 130 -9 0 -1 7 -3
15 -5 38 -8 130 -47 130 -56 0 -5 5 -9 12 -9 23 0 104 -64 148 -117 56 -67 74
-101 99 -183 27 -88 33 -141 36 -305 l1 -140 30 2 c123 4 230 16 299 33 92 23
244 95 325 153 88 65 270 256 270 284 0 5 9 18 20 28 11 10 20 24 20 31 0 7 6
19 13 26 40 42 118 249 145 383 8 41 8 325 0 400 -7 57 -9 74 -25 155 -9 51
-9 49 -37 123 -122 323 -376 589 -685 718 -67 28 -233 80 -250 77 -3 0 -8 1
-11 2 -23 9 -334 23 -342 15z m666 -677 c-1 -24 -3 -43 -4 -43 -1 0 -7 -52
-11 -102 -2 -18 -6 -33 -9 -33 -3 0 -5 -15 -5 -33 0 -30 24 -70 40 -67 3 1 23
-9 43 -22 20 -12 42 -25 47 -28 90 -47 135 -90 95 -90 -11 0 -21 0 -22 1 -2 0
-14 -4 -28 -9 -14 -5 -47 -13 -73 -16 -26 -4 -69 -15 -95 -24 -44 -16 -48 -21
-59 -66 -6 -26 -15 -70 -18 -97 -4 -27 -12 -68 -19 -91 l-12 -42 -22 31 c-12
18 -43 74 -68 125 -50 101 -57 108 -88 102 -12 -3 -46 -7 -76 -9 -123 -11
-162 -15 -169 -19 -4 -3 -13 -1 -20 3 -9 6 18 38 88 109 56 56 101 106 101
111 0 5 -18 49 -41 96 -22 48 -42 95 -44 105 -2 10 -8 27 -14 38 -23 44 14 35
149 -34 52 -27 98 -50 101 -52 4 -1 55 46 115 105 60 59 111 105 115 101 3 -5
4 -27 3 -50z"/>
<path d="M10319 8076 c-2 -2 -24 -7 -48 -10 -55 -7 -65 -17 -55 -47 4 -13 9
-26 9 -29 1 -3 8 -25 15 -50 7 -25 14 -47 15 -50 11 -47 43 -138 67 -191 32
-72 38 -76 126 -85 18 -2 37 -6 42 -9 6 -3 10 -1 10 5 0 6 5 8 11 4 6 -3 29
-8 51 -10 21 -2 52 -11 68 -19 35 -18 43 -5 23 43 -7 17 -11 32 -9 32 3 0 -1
18 -9 40 -8 22 -12 40 -9 40 2 0 0 8 -5 18 -6 11 -12 30 -15 43 -2 13 -21 71
-40 129 -20 58 -36 106 -36 106 0 2 -37 14 -60 20 -8 2 -40 6 -72 8 -31 2 -61
6 -66 10 -5 3 -11 4 -13 2z"/>
<path d="M986 8028 c-8 -18 -18 -49 -22 -68 -9 -42 -9 -41 -17 -60 -14 -33
-50 -188 -54 -233 -9 -86 5 -103 142 -177 33 -17 70 -44 82 -58 27 -34 40 -23
48 43 4 28 13 75 20 105 8 30 16 66 19 80 2 14 11 53 19 86 28 117 12 158 -83
214 -36 21 -80 52 -98 69 -18 17 -35 31 -37 31 -2 0 -11 -15 -19 -32z"/>
<path d="M10365 7463 c3 -16 7 -37 9 -48 6 -32 20 -109 21 -120 2 -23 18 -112
23 -130 2 -11 6 -31 7 -45 6 -47 28 -87 59 -103 17 -9 69 -26 116 -37 47 -12
100 -30 118 -41 41 -23 42 -23 37 -1 -2 10 -6 47 -9 83 -4 36 -8 76 -11 90 -2
13 -6 47 -10 74 -12 98 -17 121 -38 175 -28 70 -57 87 -164 94 -45 4 -97 13
-117 21 -47 20 -47 20 -41 -12z"/>
<path d="M829 7428 c-1 -13 -3 -32 -4 -43 -2 -11 -6 -42 -9 -70 -3 -27 -8 -61
-11 -75 -3 -14 -8 -79 -11 -145 -6 -114 -5 -122 17 -154 19 -28 40 -40 104
-63 44 -15 93 -37 109 -49 31 -23 45 -15 47 26 0 11 3 29 5 40 2 11 6 38 8 60
2 22 7 60 11 85 4 25 8 78 9 119 3 111 -15 140 -118 190 -45 22 -90 49 -101
61 -11 12 -28 26 -37 31 -15 8 -18 5 -19 -13z"/>
<path d="M10447 6773 c6 -263 14 -330 44 -360 28 -27 53 -48 54 -44 0 5 103
-28 120 -38 6 -3 17 -6 25 -8 8 -1 16 -7 18 -12 2 -6 10 -11 17 -11 21 0 29
74 29 261 1 121 -3 173 -13 191 -17 33 -74 64 -130 72 -24 3 -68 17 -99 31
-30 14 -57 25 -61 25 -3 0 -5 -48 -4 -107z"/>
<path d="M764 6539 c2 -132 6 -242 8 -244 7 -7 283 -92 288 -88 9 8 8 363 -2
402 -13 52 -40 71 -151 111 -47 17 -91 38 -98 46 -6 8 -20 14 -31 14 -19 0
-19 -7 -14 -241z"/>
<path d="M10454 6253 c-1 -30 -14 -157 -18 -178 -5 -24 -17 -165 -19 -218 -1
-20 1 -37 6 -37 4 0 7 -7 7 -14 0 -16 59 -66 82 -70 23 -4 112 -54 135 -75 22
-21 22 -21 33 -1 6 11 8 20 5 20 -3 0 -1 8 4 19 12 21 18 52 35 171 11 75 14
193 5 225 -13 47 -60 86 -116 96 -27 5 -70 25 -99 44 -58 40 -60 41 -60 18z"/>
<path d="M775 6068 c3 -40 8 -80 10 -88 3 -8 7 -40 10 -70 2 -30 7 -66 9 -80
3 -14 7 -42 10 -63 12 -75 57 -137 106 -144 8 -1 26 -4 40 -8 14 -3 45 -8 70
-11 25 -3 62 -9 83 -14 43 -9 51 -2 42 41 -4 17 -8 40 -9 52 -2 12 -6 36 -9
52 -6 29 -16 80 -23 120 -1 11 -5 31 -8 45 -3 14 -8 39 -12 55 -3 17 -12 40
-20 53 -8 12 -12 22 -9 22 4 0 0 6 -7 13 -16 16 -68 34 -118 40 -36 5 -121 32
-153 49 -18 9 -18 5 -12 -64z"/>
<path d="M10370 5608 c-15 -54 -91 -357 -95 -379 -3 -16 47 -65 165 -161 71
-58 96 -66 103 -36 3 13 11 41 17 63 6 22 13 48 15 58 2 10 6 26 9 35 8 26 18
75 19 95 1 9 5 17 10 17 4 0 6 4 3 8 -3 4 -1 27 5 50 21 96 19 119 -15 149
-17 15 -55 39 -83 53 -29 14 -53 28 -53 33 0 4 -5 7 -11 7 -6 0 -26 12 -44 26
l-34 25 -11 -43z"/>
<path d="M5146 5613 c-4 -4 -33 -8 -64 -9 -113 -5 -302 -24 -314 -33 -2 -1
-19 -4 -38 -6 -52 -6 -102 -15 -112 -21 -5 -3 -19 -7 -31 -9 -26 -4 -40 -7
-127 -30 -36 -9 -71 -21 -77 -27 -7 -6 -13 -8 -13 -5 0 12 -96 -37 -118 -60
-30 -33 -26 -78 11 -109 32 -27 111 -64 136 -64 9 0 22 -5 29 -12 7 -7 12 -9
12 -6 0 4 15 2 33 -3 39 -12 55 -16 167 -35 14 -3 36 -7 50 -10 14 -2 40 -6
58 -9 17 -3 49 -8 70 -11 20 -3 53 -7 72 -9 19 -2 35 -4 35 -5 0 -1 18 -4 40
-6 113 -11 130 -13 130 -14 0 -4 241 -23 307 -24 32 -1 58 -5 58 -11 0 -7 3
-7 8 0 4 6 121 10 312 11 331 1 505 8 695 29 28 3 73 7 100 10 28 2 64 6 80 9
17 2 53 8 80 12 28 3 59 8 70 11 11 2 38 6 60 9 22 3 45 10 51 15 6 5 13 6 16
4 4 -5 55 5 103 19 6 1 30 8 55 15 64 18 162 63 183 84 30 30 29 71 -1 100
-26 25 -142 83 -142 71 0 -4 -6 -2 -12 3 -11 9 -64 24 -128 38 -8 2 -36 8 -63
14 -26 6 -64 14 -83 17 -20 3 -46 8 -58 10 -47 11 -145 23 -241 30 -38 3 -101
8 -140 11 -113 8 -1168 11 -1196 3 -14 -4 -33 -4 -41 1 -8 5 -18 5 -22 2z
m1129 -137 c188 -8 445 -26 565 -41 42 -5 56 -7 120 -19 93 -18 140 -35 140
-51 0 -14 -70 -40 -132 -49 -21 -4 -53 -8 -70 -11 -77 -12 -106 -16 -163 -20
-398 -31 -1688 -39 -1835 -11 -14 3 -52 8 -85 11 -160 14 -395 58 -395 74 1
25 86 52 207 65 84 9 161 17 218 22 33 3 83 7 110 9 28 3 93 7 145 9 52 3 95
6 95 6 0 1 58 4 130 6 71 3 131 7 132 8 4 4 689 -3 818 -8z"/>
<path d="M887 5472 c-15 -3 -17 -10 -12 -44 8 -53 59 -228 75 -258 7 -14 12
-26 11 -28 -6 -5 32 -97 45 -109 23 -23 58 -30 149 -32 102 -2 122 -4 131 -14
4 -4 13 -7 21 -7 17 0 11 37 -26 155 -58 186 -71 231 -71 253 0 25 -37 47 -95
56 -22 3 -49 7 -60 10 -11 2 -40 7 -65 10 -25 3 -54 8 -65 9 -11 2 -28 2 -38
-1z"/>
<path d="M10190 4944 c-33 -69 -60 -130 -60 -135 0 -5 -5 -9 -12 -9 -6 0 -9
-3 -6 -6 4 -3 0 -20 -8 -39 -39 -95 -27 -141 60 -230 36 -38 71 -84 77 -103 6
-18 15 -30 19 -25 23 23 163 299 163 321 0 6 3 12 7 12 3 0 14 22 24 50 18 49
18 50 -4 86 -22 34 -184 204 -195 204 -3 0 -33 -57 -65 -126z"/>
<path d="M4502 4973 c-11 -21 -27 -63 -37 -93 -20 -63 -68 -155 -96 -186 -10
-11 -19 -23 -19 -27 0 -9 -75 -82 -115 -113 -50 -38 -150 -83 -222 -100 -117
-28 -216 -18 -411 42 -20 6 -22 4 -18 -17 7 -40 67 -202 89 -244 35 -64 103
-150 153 -191 25 -22 52 -45 59 -51 8 -7 16 -13 19 -13 4 0 24 -11 46 -25 22
-14 40 -23 40 -20 0 3 10 -1 23 -9 58 -36 208 -54 297 -34 25 5 50 11 55 12
67 14 207 109 282 190 60 64 143 178 143 195 0 6 5 11 11 11 5 0 8 4 4 9 -3 5
0 13 6 17 39 24 190 424 203 538 6 53 -23 81 -95 91 -30 4 -61 9 -69 10 -14 3
-40 6 -155 21 -22 2 -51 7 -65 9 -107 19 -108 19 -128 -22z"/>
<path d="M6904 4998 c-21 -3 -61 -9 -89 -13 -27 -3 -61 -8 -75 -10 -14 -2 -45
-7 -70 -10 -130 -18 -172 -36 -165 -68 2 -12 7 -35 9 -52 3 -16 10 -46 15 -65
5 -19 13 -46 16 -60 4 -14 10 -34 15 -45 5 -11 23 -60 41 -110 18 -49 37 -91
41 -93 4 -2 8 -8 8 -13 0 -33 121 -236 174 -292 14 -15 26 -31 26 -35 0 -4 36
-41 81 -84 87 -84 180 -138 242 -141 20 -1 37 -4 37 -7 0 -10 145 -3 200 9
103 24 232 94 308 168 122 119 183 234 198 376 5 53 10 50 -57 31 -31 -9 -93
-13 -219 -13 -148 -1 -207 5 -236 24 -13 8 -30 15 -39 15 -8 0 -15 4 -15 9 0
5 -14 14 -30 21 -17 7 -37 22 -45 34 -8 11 -15 17 -15 12 0 -10 -83 81 -120
132 -32 45 -84 144 -95 182 -3 14 -14 44 -22 67 -17 47 -22 48 -119 31z"/>
<path d="M5179 4928 c-1 -2 -3 -28 -5 -58 -3 -30 -9 -70 -14 -89 -5 -19 -7
-38 -4 -43 3 -4 1 -8 -4 -8 -5 0 -9 -6 -10 -12 -1 -21 -13 -71 -18 -80 -3 -4
-7 -16 -9 -25 -9 -41 -58 -168 -67 -174 -5 -3 -9 -10 -9 -15 1 -14 -20 -76
-37 -109 -9 -16 -17 -35 -18 -42 -3 -19 -142 -282 -155 -293 -9 -8 -79 -127
-79 -134 0 -4 9 -16 20 -28 11 -12 20 -28 20 -35 0 -7 5 -13 10 -13 6 0 10 -6
10 -13 0 -10 73 -126 102 -162 4 -5 29 -37 55 -70 43 -54 213 -229 274 -281
182 -156 489 -340 542 -326 27 7 261 142 265 154 2 4 10 8 18 8 8 0 14 5 14
10 0 6 4 10 10 10 10 0 65 40 155 113 127 103 379 379 422 462 9 17 19 32 22
35 10 8 81 131 81 140 0 5 -32 62 -71 127 -89 147 -185 340 -228 458 -18 50
-39 106 -46 125 -18 49 -43 138 -50 180 -3 19 -7 40 -9 45 -5 18 -23 116 -25
138 -1 7 -55 5 -251 -8 -137 -10 -204 -16 -207 -19 -3 -3 -16 -189 -28 -411
-3 -60 -8 -135 -10 -165 -3 -30 -7 -93 -10 -140 -17 -267 -44 -434 -71 -444
-15 -6 -30 37 -39 112 -9 76 -15 121 -19 160 -11 86 -25 296 -41 582 -14 251
-17 296 -26 304 -2 3 -43 8 -89 11 -47 3 -110 7 -140 10 -94 8 -230 15 -231
13z"/>
<path d="M1116 4850 c-65 -12 -65 -21 -2 -175 74 -181 125 -263 165 -266 34
-3 58 -1 106 6 28 5 80 8 117 8 l66 0 -18 41 c-18 43 -75 164 -138 299 -38 81
-35 79 -114 81 -14 1 -29 4 -33 7 -3 4 -21 3 -38 -1 -18 -4 -42 -4 -52 0 -11
3 -37 3 -59 0z"/>
<path d="M9962 4438 c-22 -35 -110 -211 -134 -268 -41 -93 -41 -94 -16 -138
13 -22 39 -59 58 -82 19 -23 43 -51 53 -63 10 -12 21 -34 24 -49 3 -17 10 -25
19 -21 8 3 14 9 14 14 0 4 13 27 29 51 55 84 180 321 185 353 3 20 -20 60 -62
105 -73 79 -127 130 -138 130 -7 0 -21 -15 -32 -32z"/>
<path d="M1550 4289 c0 -6 -4 -8 -10 -4 -5 3 -32 -2 -59 -11 -32 -10 -72 -15
-114 -12 -60 3 -64 2 -59 -17 3 -11 9 -25 13 -31 5 -6 23 -37 40 -70 17 -32
37 -66 44 -74 7 -8 16 -25 19 -37 4 -13 12 -23 17 -23 6 0 8 -4 5 -8 -3 -5 4
-19 15 -30 11 -12 17 -22 14 -22 -8 0 55 -93 69 -102 5 -4 13 -5 16 -3 6 4 77
15 200 32 25 3 50 6 57 7 7 1 15 5 19 8 3 4 12 4 20 1 8 -3 14 0 14 7 0 13
-19 52 -29 60 -4 3 -20 28 -36 55 -53 93 -118 190 -149 221 -33 34 -106 70
-106 53z"/>
<path d="M9683 3956 c-20 -27 -36 -49 -61 -88 -9 -14 -42 -62 -73 -105 -30
-43 -64 -94 -75 -113 -10 -19 -23 -38 -27 -41 -19 -14 -5 -109 16 -109 6 0 8
-3 4 -6 -3 -4 11 -29 32 -58 42 -57 62 -91 57 -97 -2 -2 2 -9 9 -16 14 -13 34
3 100 82 22 26 45 52 50 59 6 6 22 27 35 46 13 19 27 37 31 40 14 11 70 110
74 132 5 25 -24 88 -64 134 -50 60 -61 74 -54 74 3 0 -1 8 -10 18 -10 10 -18
31 -19 45 -1 15 -3 27 -4 27 -2 0 -11 -11 -21 -24z"/>
<path d="M1795 3728 c-48 -17 -95 -27 -117 -25 -21 1 -38 -1 -38 -6 0 -11 71
-111 82 -115 5 -2 8 -10 8 -17 0 -7 4 -15 9 -17 5 -1 37 -37 71 -78 85 -102
130 -145 155 -145 11 -1 63 13 115 31 52 17 98 32 103 32 4 1 8 2 10 3 1 0 10
2 20 4 11 2 22 6 25 10 9 8 -28 68 -70 116 -10 10 -18 22 -18 25 0 8 -96 121
-134 157 -40 38 -80 58 -113 55 -16 -1 -64 -15 -108 -30z"/>
<path d="M9208 3347 c-162 -170 -178 -193 -178 -257 0 -34 82 -232 99 -238 17
-6 261 207 261 227 0 4 9 16 20 26 16 15 30 54 35 100 2 19 -16 60 -55 125
-34 56 -46 85 -49 123 -3 23 -37 -5 -133 -106z"/>
<path d="M2200 3241 c-47 -21 -88 -37 -92 -35 -4 3 -9 0 -13 -6 -4 -6 -11 -8
-16 -5 -5 4 -9 -3 -9 -15 0 -13 46 -67 128 -148 124 -125 190 -172 240 -172
21 0 119 49 161 81 13 11 27 16 32 13 5 -3 9 0 9 5 0 6 5 10 12 9 6 -2 13 4
15 12 4 19 -141 166 -227 230 -18 14 -46 35 -61 48 -38 31 -80 27 -179 -17z"/>
<path d="M8835 2994 c-16 -14 -43 -38 -60 -52 -16 -15 -66 -57 -110 -94 -44
-37 -85 -74 -91 -81 -21 -25 -35 -57 -29 -67 3 -6 1 -10 -5 -10 -7 0 -8 -6 -1
-19 6 -10 8 -21 4 -24 -3 -4 -1 -12 5 -19 6 -7 11 -16 11 -21 0 -4 8 -24 16
-45 9 -20 17 -54 19 -75 5 -59 18 -65 67 -31 23 16 49 34 58 39 8 6 20 15 26
21 5 5 26 22 45 36 19 14 45 36 58 47 12 12 22 19 22 16 0 -18 92 95 99 122
10 36 2 86 -22 129 -29 54 -49 107 -51 130 -1 31 -23 30 -61 -2z"/>
<path d="M2719 2837 c-99 -61 -155 -92 -164 -92 -5 0 -11 -7 -13 -16 -5 -26
215 -206 307 -251 87 -42 124 -31 234 75 10 10 35 26 55 34 l36 15 -44 42
c-25 24 -48 41 -52 39 -3 -2 -8 0 -10 4 -5 13 -86 73 -97 73 -5 0 -14 6 -18
13 -4 6 -18 18 -31 25 -117 65 -150 72 -203 39z"/>
<path d="M8380 2640 c0 -5 -4 -10 -9 -10 -10 0 -85 -46 -269 -165 l-93 -60 6
-45 c3 -25 8 -55 11 -67 3 -12 7 -41 9 -65 2 -23 4 -43 5 -43 1 0 4 -20 7 -45
2 -25 6 -46 8 -48 1 -2 29 11 61 29 33 18 77 42 99 53 22 12 42 23 45 26 6 6
46 29 85 49 17 8 41 25 55 38 14 13 27 23 30 23 19 0 35 128 19 148 -1 1 -3 7
-4 12 -1 6 -3 11 -5 13 -1 1 -3 9 -5 17 -2 8 -6 29 -10 45 -6 29 -12 66 -14
93 -1 14 -31 17 -31 2z"/>
<path d="M3284 2512 c-10 -10 -59 -47 -109 -82 -140 -101 -133 -88 -72 -132
29 -20 57 -38 63 -38 6 0 19 -9 29 -20 10 -11 21 -17 26 -15 4 3 11 1 14 -5
12 -20 166 -90 210 -97 42 -5 105 10 105 26 0 10 99 110 126 128 28 18 30 34
7 49 -37 22 -372 204 -377 204 -1 0 -11 -8 -22 -18z"/>
<path d="M7835 2329 c-35 -18 -134 -63 -260 -119 -22 -10 -50 -21 -61 -24 -33
-10 -50 -35 -68 -100 -21 -71 -33 -250 -18 -260 5 -3 26 1 45 9 19 8 37 11 41
8 3 -4 6 -1 6 5 0 7 3 11 8 10 4 -1 24 6 46 15 21 9 45 17 52 17 8 0 14 5 14
10 0 6 6 10 14 10 12 0 204 84 213 94 16 16 31 346 17 346 -5 -1 -27 -10 -49
-21z"/>
<path d="M6615 2309 c-2 -3 -22 -5 -45 -5 -22 1 -40 -1 -40 -4 0 -3 -11 -7
-24 -8 -13 -1 -37 -7 -52 -13 -16 -7 -35 -13 -42 -15 -8 -1 -21 -6 -30 -10 -9
-4 -21 -8 -27 -10 -5 -1 -28 -10 -50 -20 -22 -10 -42 -18 -45 -19 -21 -3 -103
-53 -110 -65 -19 -35 67 -168 141 -221 45 -31 64 -31 104 5 20 18 70 45 112
61 77 30 81 31 143 39 49 6 131 26 144 34 6 3 16 7 21 8 22 5 114 41 127 50 7
5 30 18 51 28 20 11 37 23 37 28 0 27 -101 92 -177 113 -15 5 -30 9 -33 10
-41 13 -199 24 -205 14z"/>
<path d="M5129 2195 c-18 -36 -37 -65 -42 -65 -4 0 -6 -4 -3 -8 3 -5 -3 -22
-13 -38 -39 -65 -33 -108 17 -118 15 -4 59 -9 97 -11 70 -5 165 -13 214 -20
14 -1 46 -9 71 -16 25 -7 55 -13 67 -14 45 -4 242 112 243 142 0 20 -108 100
-195 143 -85 42 -112 49 -215 55 -36 2 -65 4 -65 5 0 1 -12 3 -27 4 -16 1 -28
-2 -28 -7 0 -4 -9 -3 -19 3 -13 7 -22 7 -26 0 -4 -7 -12 -7 -24 0 -16 8 -23 1
-52 -55z"/>
<path d="M4899 2246 c-2 -3 -16 -7 -29 -9 -26 -5 -41 -10 -75 -23 -11 -4 -25
-8 -32 -10 -45 -9 -184 -93 -263 -159 -52 -43 -160 -182 -160 -206 0 -9 16
-49 36 -88 35 -69 122 -171 147 -171 7 0 34 28 62 62 54 67 132 147 183 190
77 64 83 78 97 228 5 48 10 67 34 128 12 29 21 55 21 57 0 6 -15 6 -21 1z"/>
<path d="M3814 2198 c-59 -40 -184 -162 -184 -181 0 -10 184 -96 220 -103 3 0
16 -5 30 -11 14 -6 42 -18 63 -27 21 -8 41 -15 45 -15 4 1 10 0 15 -1 4 -1 12
-4 17 -5 6 -1 11 -3 13 -5 23 -19 68 13 137 98 19 24 54 63 78 86 l43 43 -78
30 c-111 43 -117 46 -128 49 -5 2 -57 19 -114 39 -57 19 -105 35 -106 35 -1 0
-24 -15 -51 -32z"/>
<path d="M7235 2100 c-11 -5 -76 -32 -145 -61 -69 -28 -136 -56 -150 -62 -14
-6 -28 -10 -32 -9 -5 1 -8 -2 -8 -6 0 -8 -57 -32 -74 -31 -5 0 -12 -3 -15 -8
-3 -5 -21 -20 -40 -32 -48 -34 -61 -73 -76 -231 -3 -35 -16 -83 -26 -95 -4 -6
-4 -16 0 -23 12 -19 187 43 371 131 56 27 164 90 181 106 14 13 20 36 23 97 6
101 16 175 27 196 19 36 6 47 -36 28z"/>
<path d="M5980 2034 c-103 -89 -113 -97 -156 -131 -23 -18 -47 -33 -53 -33 -6
0 -11 -4 -11 -8 0 -4 -15 -14 -32 -21 -69 -30 -104 -43 -125 -47 -41 -8 -70
-22 -97 -48 -15 -13 -26 -26 -25 -28 2 -2 -1 -14 -5 -28 -5 -14 -8 -28 -7 -32
1 -5 -2 -8 -6 -8 -5 0 -9 -31 -11 -70 l-3 -69 38 -7 c47 -9 166 -10 213 -1 70
12 115 25 170 50 30 14 173 98 180 106 3 3 32 26 65 51 67 51 95 77 95 88 0 4
-14 23 -31 42 -61 70 -109 150 -120 199 -6 28 -11 51 -12 51 -1 0 -31 -25 -67
-56z"/>
<path d="M4914 1814 c-35 -17 -135 -109 -158 -145 l-16 -26 52 -23 c85 -37
133 -54 184 -65 10 -2 46 -11 79 -20 33 -9 75 -18 94 -21 18 -2 36 -6 40 -9 4
-2 35 -7 69 -11 68 -7 67 -8 77 61 8 57 36 155 46 161 11 7 12 51 1 58 -4 2
-28 7 -52 10 -25 3 -56 8 -70 11 -14 3 -41 8 -60 11 -19 3 -46 7 -60 9 -71 13
-199 12 -226 -1z"/>
<path d="M6445 1766 c-33 -10 -63 -24 -67 -30 -4 -6 -8 -8 -8 -4 0 8 -165 -87
-187 -106 -6 -6 -25 -21 -41 -34 -39 -30 -82 -73 -82 -82 0 -4 17 -11 38 -15
41 -9 252 -14 266 -7 5 3 30 6 56 7 75 4 86 15 114 108 14 45 28 106 32 135
l7 52 -34 -2 c-19 -2 -61 -11 -94 -22z"/>
<path d="M4249 1658 c0 -2 -2 -12 -4 -23 -1 -11 -5 -33 -9 -50 -19 -89 -24
-208 -11 -271 3 -16 7 -38 9 -49 14 -94 81 -244 127 -286 27 -24 34 -25 121
-23 51 1 109 5 128 9 38 7 100 34 100 44 0 9 -34 58 -80 116 -41 51 -61 95
-101 225 -22 68 -28 76 -64 95 -36 18 -84 54 -107 80 -52 59 -70 83 -80 107
-11 23 -25 36 -29 26z"/>
<path d="M7200 1607 c-194 -88 -191 -85 -205 -200 -3 -26 -10 -59 -16 -73 -13
-35 -4 -60 29 -78 185 -98 260 -132 274 -122 37 27 91 188 90 267 0 89 -34
259 -51 259 -3 0 -58 -24 -121 -53z"/>
<path d="M4722 1353 c-27 -10 -40 -19 -35 -26 4 -7 29 -45 57 -86 61 -89 112
-142 131 -135 24 10 175 9 175 0 0 -5 3 -7 6 -4 3 4 25 -1 50 -9 49 -17 43
-20 152 75 115 100 159 146 135 140 -9 -2 -58 10 -93 22 -23 9 -48 12 -170 26
-114 13 -366 11 -408 -3z"/>
<path d="M6289 1346 c-2 -2 -26 -7 -52 -10 -27 -4 -92 -22 -145 -41 -53 -19
-98 -35 -99 -35 -2 0 -3 -3 -3 -8 0 -4 15 -13 33 -21 95 -40 205 -98 276 -145
l80 -53 78 2 c92 2 134 15 214 62 33 20 100 52 150 73 l91 37 -70 36 c-72 37
-190 80 -252 92 -39 7 -295 16 -301 11z"/>
<path d="M5600 1232 c-8 -3 -17 -8 -20 -12 -3 -4 -17 -13 -31 -21 -56 -30
-209 -145 -206 -154 2 -5 59 -29 128 -53 173 -59 282 -108 368 -165 95 -63
110 -68 147 -52 43 18 171 130 189 165 15 29 15 30 -29 73 -41 41 -201 130
-232 130 -8 0 -14 4 -14 9 0 4 -8 8 -18 8 -10 0 -22 3 -26 7 -3 4 -12 8 -19 9
-15 2 -157 43 -177 51 -24 10 -44 11 -60 5z"/>
<path d="M4058 1053 c-57 -39 -178 -155 -222 -215 l-28 -37 79 1 c88 1 108 -7
221 -95 l62 -49 69 56 c99 81 99 81 65 114 -41 38 -95 117 -130 185 -40 81
-51 84 -116 40z"/>
<path d="M6868 1069 c-67 -30 -112 -56 -134 -76 -25 -23 -25 -25 -9 -44 10
-10 22 -19 26 -19 15 0 59 -41 189 -172 70 -71 132 -128 140 -128 7 0 28 12
47 26 69 52 161 83 256 84 20 0 37 3 37 8 0 9 -63 84 -116 139 -23 24 -39 45
-36 48 3 3 1 5 -5 5 -9 0 -55 32 -99 69 -7 6 -15 7 -18 4 -3 -4 -6 -2 -6 4 0
6 -10 14 -22 18 -31 10 -37 12 -43 15 -3 1 -8 3 -12 4 -5 1 -19 6 -32 10 -29
10 -144 14 -163 5z"/>
<path d="M5275 878 c10 -59 7 -89 -10 -139 -16 -46 -82 -149 -95 -149 -4 0
-11 -7 -14 -16 -6 -15 2 -16 71 -11 43 4 85 8 93 10 8 2 31 7 50 11 19 5 41
13 49 20 8 6 16 10 18 8 13 -9 273 150 273 168 0 5 -8 14 -19 19 -21 11 -165
60 -196 67 -11 2 -42 10 -70 19 -156 46 -159 46 -150 -7z"/>
<path d="M6330 894 c-51 -42 -230 -227 -230 -238 0 -4 97 -40 112 -41 3 0 10
-3 14 -7 4 -5 19 -8 34 -8 15 0 30 -3 34 -7 3 -4 14 -8 24 -9 9 0 37 -5 62 -9
71 -13 182 -8 210 10 4 2 22 7 40 10 39 7 116 41 125 55 4 6 10 8 15 5 4 -3
11 2 14 11 5 14 -45 92 -96 148 -10 11 -18 26 -18 33 0 7 -4 13 -9 13 -5 0
-12 11 -15 25 -6 23 -9 24 -84 24 -42 0 -104 2 -137 6 -57 7 -63 6 -95 -21z"/>
<path d="M4825 881 c-88 -50 -184 -75 -294 -74 l-43 0 23 -19 c112 -89 317
-183 394 -179 59 3 96 20 134 60 37 39 82 128 87 173 5 42 -36 58 -154 64 -92
3 -100 2 -147 -25z"/>
<path d="M3765 660 c-11 -4 -23 -6 -27 -3 -5 2 -8 -1 -8 -7 0 -6 -4 -8 -10 -5
-5 3 -10 1 -10 -5 0 -6 -4 -9 -9 -6 -5 3 -15 -1 -22 -10 -12 -14 -1 -28 85
-111 55 -52 107 -98 116 -103 14 -7 33 6 94 66 l76 76 -38 35 c-20 19 -57 43
-81 54 -47 21 -133 31 -166 19z"/>
<path d="M7380 603 c-8 -3 -22 -7 -30 -10 -8 -4 -17 -7 -20 -8 -3 -1 -22 -9
-44 -18 -21 -9 -42 -17 -47 -17 -5 0 -9 -4 -9 -10 0 -5 -5 -10 -11 -10 -18 0
-41 -29 -33 -42 26 -41 133 -148 148 -148 13 1 26 10 106 80 83 72 120 109
120 121 0 11 -80 53 -80 42 0 -5 -4 -3 -8 3 -8 13 -68 23 -92 17z"/>
<path d="M3604 484 c29 -39 91 -103 154 -157 23 -21 32 -25 32 -14 0 18 -154
178 -190 197 -25 13 -25 13 4 -26z"/>
<path d="M3450 413 c-68 -53 -67 -49 -19 -106 24 -29 47 -53 51 -55 5 -2 8 -8
8 -13 0 -9 58 -76 104 -120 34 -33 54 -21 94 55 16 29 19 44 11 57 -13 26
-194 209 -205 209 -5 0 -25 -12 -44 -27z"/>
<path d="M7600 411 c-29 -19 -74 -57 -104 -88 -77 -79 -93 -108 -46 -83 29 15
159 139 172 163 13 26 7 28 -22 8z"/>
<path d="M7623 269 c-43 -42 -89 -88 -102 -102 l-24 -27 35 -52 c19 -29 38
-62 42 -73 6 -17 14 -12 64 41 52 56 109 119 153 169 32 38 32 61 0 94 -48 49
-75 41 -168 -50z"/>
</g>
</svg>
